<?xml version="1.0" encoding="UTF-8"?>
<svg version="1.1" xmlns="http://www.w3.org/2000/svg" width="835" height="299">
<path d="M0 0 C1.23041016 -0.020625 2.46082031 -0.04125 3.72851562 -0.0625 C14.21049871 -0.10679787 23.74175108 1.28114099 33.125 6.1875 C34.07246094 6.67089844 35.01992188 7.15429688 35.99609375 7.65234375 C43.39900284 12.04681373 48.92216792 18.38436842 54.4375 24.875 C54.96045654 25.48746582 55.48341309 26.09993164 56.0222168 26.73095703 C59.97117904 31.37033946 63.8354788 36.07497927 67.67578125 40.8046875 C70.01231985 43.64482956 72.43403918 46.39864172 74.87109375 49.15234375 C77.83600316 52.57633591 80.67349671 56.10371685 83.53125 59.6171875 C86.19887684 62.87439853 88.93022925 66.06853375 91.6875 69.25 C92.32401717 63.11197788 92.32401717 63.11197788 89.75 57.8125 C89.069375 57.296875 88.38875 56.78125 87.6875 56.25 C86.1753133 53.22562661 86.51486631 50.58758466 86.6875 47.25 C88.27386213 43.03027673 90.55657284 41.71325862 94.52734375 39.8828125 C98.09937646 38.83639424 100.387381 39.72686816 103.6875 41.25 C106.91077156 43.54021927 107.57928585 44.82487297 108.5625 48.6875 C108.6895385 52.30809733 108.42779719 54.11746506 106.6875 57.25 C106.17421143 57.7032666 105.66092285 58.1565332 105.13208008 58.62353516 C103.28571207 60.7023764 103.31327456 61.77555721 103.32421875 64.5234375 C103.32486328 65.3484375 103.32550781 66.1734375 103.32617188 67.0234375 C103.34228516 67.88195312 103.35839844 68.74046875 103.375 69.625 C103.37016602 70.90117187 103.37016602 70.90117187 103.36523438 72.203125 C103.41889908 78.46725935 104.35887364 82.84203314 108.25 87.875 C108.77207031 88.55304688 109.29414063 89.23109375 109.83203125 89.9296875 C112.74689082 93.5747961 115.73250071 97.16071513 118.734375 100.734375 C120.6875 103.25 120.6875 103.25 121.765625 105.515625 C122.62430831 107.61186843 122.62430831 107.61186843 125.6875 108.25 C127.44921875 110.18359375 127.44921875 110.18359375 129.375 112.6875 C130.08140625 113.595 130.7878125 114.5025 131.515625 115.4375 C132.23234375 116.365625 132.9490625 117.29375 133.6875 118.25 C134.99624901 119.89881765 136.30867396 121.5447251 137.625 123.1875 C138.28242188 124.00863281 138.93984375 124.82976562 139.6171875 125.67578125 C146.75507833 134.58315886 146.75507833 134.58315886 154.25 143.1875 C164.29455338 154.67697753 172.11427992 168.55059597 171.6875 184.25 C168.924366 187.013134 160.64816753 185.5352424 156.9375 185.5625 C155.66777344 185.59150391 154.39804687 185.62050781 153.08984375 185.65039062 C135.63073064 185.76630915 121.58989421 179.48517248 108.93359375 167.578125 C106.13734412 164.67975147 103.67884536 161.63464178 101.296875 158.390625 C99.25756609 155.67814616 96.98793271 153.22035495 94.65625 150.7578125 C94.3365625 150.26023438 94.016875 149.76265625 93.6875 149.25 C94.0175 148.26 94.3475 147.27 94.6875 146.25 C96.62377769 146.14192869 98.56177756 146.0643775 100.5 146 C101.57894531 145.95359375 102.65789062 145.9071875 103.76953125 145.859375 C106.6875 146.25 106.6875 146.25 108.30078125 148.19921875 C108.75839844 148.87597656 109.21601563 149.55273438 109.6875 150.25 C112.68405582 151.37791708 115.50922648 151.57283689 118.6875 151.25 C121.89763047 149.3735883 121.89763047 149.3735883 123.6875 146.25 C124.35814058 142.59873465 124.16948314 141.01313998 122.1875 137.875 C119.16809296 135.91238542 117.21318024 135.77383875 113.6875 135.71875 C111.48682037 136.0985566 111.48682037 136.0985566 109.99609375 138.2578125 C106.49541238 141.27870505 103.21942988 140.76141633 98.75 140.625 C97.95142578 140.62371094 97.15285156 140.62242187 96.33007812 140.62109375 C90.82047787 140.53892904 86.76002203 140.1485512 82.546875 136.2890625 C77.56997355 130.59327528 72.96082852 124.74834725 68.53515625 118.62109375 C66.90653484 116.1800871 66.90653484 116.1800871 64.6875 115.25 C64.4155321 119.26945503 64.4155321 119.26945503 64.6875 123.25 C65.99950404 124.60432675 67.33381404 125.93733482 68.6875 127.25 C69.95100609 131.16520637 70.09326981 134.23557547 68.5625 138.0625 C65.43598568 141.71010004 63.04222319 143.07758069 58.25 143.6875 C53.97781307 143.16284546 51.93718229 142.04623825 48.6875 139.25 C46.91084738 136.31466089 46.66970646 134.6770449 46.8125 131.25 C47.82227556 127.78791236 49.18670279 125.82657894 51.6875 123.25 C52.3475 123.25 53.0075 123.25 53.6875 123.25 C53.52389178 119.74643383 53.29846319 116.2493786 53.0625 112.75 C52.99482422 111.27660156 52.99482422 111.27660156 52.92578125 109.7734375 C52.39315085 102.51029574 50.49717712 98.62002785 45.6875 93.25 C44.80945738 92.11671243 43.94050825 90.97630477 43.08203125 89.828125 C38.16943519 83.46876517 33.09686537 77.37980402 27.60717773 71.51098633 C24.08324488 67.73042267 20.82962278 63.80230891 17.640625 59.73828125 C15.56239929 57.09062169 13.44409223 54.47986533 11.3125 51.875 C10.56355469 50.95332031 9.81460937 50.03164062 9.04296875 49.08203125 C7.45619938 47.17422397 5.83250326 45.2966055 4.17578125 43.44921875 C-4.84564716 33.2396696 -12.84308648 20.3014964 -14 6.4375 C-14.08636719 5.48230469 -14.17273438 4.52710938 -14.26171875 3.54296875 C-14.27847656 2.78628906 -14.29523438 2.02960937 -14.3125 1.25 C-11.6106606 -1.4518394 -3.62945421 0.01470159 0 0 Z M35.8125 35.4375 C33.6435897 38.30811658 32.6875 39.67481427 32.6875 43.25 C34.30905629 46.73634601 35.45203292 48.09302194 38.6875 50.25 C44.02218429 50.63464895 44.02218429 50.63464895 48.6875 48.25 C54.10927918 48.45459544 57.53791238 49.76057405 61.6875 53.25 C64.95801009 58.50617692 66.6875 64.06390326 66.6875 70.25 C68.57929203 70.9314823 68.57929203 70.9314823 70.6875 71.25 C71.3475 70.59 72.0075 69.93 72.6875 69.25 C72.37781481 59.95944423 70.77296291 53.23818998 64.0625 46.6875 C61.40209162 44.55781247 58.58117235 43.18967442 55.5 41.75 C51.49151319 39.85092679 49.54020969 38.41859679 47.6875 34.25 C43.28699738 32.04974869 39.64618272 32.52056749 35.8125 35.4375 Z " fill="#1D6B84" transform="translate(326.3125,56.75)"/>
<path d="M0 0 C0.99 0 1.98 0 3 0 C4.53515625 1.6796875 4.53515625 1.6796875 6.0625 3.875 C7.63670507 6.11013087 9.06257966 8.06257966 11 10 C11.93028246 11.21889418 12.84524358 12.44954027 13.75 13.6875 C16.22221136 17.03831589 18.84532565 20.13725351 21.703125 23.1640625 C25.2133562 28.13336571 25.27541239 33.59082695 25.1953125 39.4609375 C25.1924826 40.25150543 25.18965271 41.04207336 25.18673706 41.8565979 C25.17560955 44.36289084 25.15051926 46.86881645 25.125 49.375 C25.11496058 51.08202606 25.10583641 52.78905777 25.09765625 54.49609375 C25.07569463 58.6642024 25.04121671 62.83203908 25 67 C23.515 67.495 23.515 67.495 22 68 C19.95222865 70.66210275 20.00552796 72.15754692 20.125 75.5625 C20.71735469 78.96918926 20.71735469 78.96918926 22.6875 80.9375 C25.7864448 82.3613395 27.62182812 82.55153827 31 82 C34.08333333 80.08333333 34.08333333 80.08333333 36 77 C36.24838381 73.40528996 36.24838381 73.40528996 35 70 C33.98921387 69.10522949 33.98921387 69.10522949 32.95800781 68.19238281 C30.30116706 65.21751624 30.5377275 63.4249875 30.609375 59.484375 C30.62226563 58.23398438 30.63515625 56.98359375 30.6484375 55.6953125 C30.68195313 54.39335937 30.71546875 53.09140625 30.75 51.75 C30.76804687 50.43257812 30.78609375 49.11515625 30.8046875 47.7578125 C30.85183729 44.50447692 30.91763956 41.25260375 31 38 C41.2154564 42.82266743 47.02626885 53.8840473 51 64 C53.61696812 72.79686085 53.25373516 81.63776633 53.1953125 90.72265625 C53.19157665 92.43615045 53.18873238 94.14964681 53.18673706 95.86314392 C53.1791456 100.34624252 53.15953627 104.82920901 53.1373291 109.31225586 C53.1131515 114.7055361 53.1040683 120.09886081 53.09242249 125.49217987 C53.07310878 133.66154479 53.0347551 141.83062052 53 150 C35.51 150 18.02 150 0 150 C0 100.5 0 51 0 0 Z " fill="#132D62" transform="translate(312,92)"/>
<path d="M0 0 C1.01775513 -0.00315216 2.03551025 -0.00630432 3.08410645 -0.009552 C4.19137085 -0.00752777 5.29863525 -0.00550354 6.43945312 -0.00341797 C7.56766479 -0.00437469 8.69587646 -0.00533142 9.85827637 -0.00631714 C12.24910538 -0.00699915 14.63993624 -0.00514344 17.03076172 -0.00097656 C20.70479464 0.00437137 24.37870529 -0.0009209 28.05273438 -0.00732422 C30.3691409 -0.00666344 32.68554734 -0.00538229 35.00195312 -0.00341797 C36.66284973 -0.00645432 36.66284973 -0.00645432 38.3572998 -0.009552 C39.37505493 -0.00639984 40.39281006 -0.00324768 41.44140625 0 C42.79256531 0.00119339 42.79256531 0.00119339 44.17102051 0.00241089 C46.22070312 0.12939453 46.22070312 0.12939453 47.22070312 1.12939453 C47.31729217 3.04034392 47.34257504 4.95491319 47.34095764 6.86830139 C47.34233231 8.11497086 47.34370697 9.36164032 47.34512329 10.64608765 C47.34158368 12.04034447 47.33794886 13.43460106 47.33422852 14.82885742 C47.33394665 16.28711444 47.33410436 17.7453716 47.33467102 19.20362854 C47.33495902 23.17452939 47.32906189 27.14540029 47.32209706 31.11629415 C47.31586394 35.26164554 47.31525976 39.40699755 47.31407166 43.55235291 C47.31095822 51.4075878 47.30274466 59.26280885 47.29272217 67.11803764 C47.28156142 76.05863852 47.27605068 84.99924005 47.27102673 93.93984616 C47.26056206 112.33637015 47.24296237 130.73288123 47.22070312 149.12939453 C46.23070312 149.12939453 45.24070312 149.12939453 44.22070312 149.12939453 C42.31054688 147.14501953 42.31054688 147.14501953 40.15820312 144.37939453 C39.37058594 143.38037109 38.58296875 142.38134766 37.77148438 141.35205078 C37.35721191 140.82369629 36.94293945 140.2953418 36.51611328 139.75097656 C35.21211583 138.11864503 33.87244245 136.52492701 32.51367188 134.93798828 C32.06838135 134.41624023 31.62309082 133.89449219 31.16430664 133.35693359 C29.90625798 131.88761848 28.64557754 130.42055794 27.38476562 128.95361328 C23.09843433 123.35971883 21.75953338 118.79730376 21.78710938 111.80908203 C21.78186752 111.02800079 21.77662567 110.24691956 21.77122498 109.44216919 C21.7648315 107.79999984 21.76610697 106.15778453 21.7746582 104.515625 C21.78320261 102.00454646 21.75431807 99.49571948 21.72265625 96.98486328 C21.72104484 95.38460354 21.72162062 93.78433979 21.72460938 92.18408203 C21.7133754 91.43609344 21.70214142 90.68810486 21.69056702 89.91744995 C21.73766203 86.39783703 21.85228496 84.55613759 24.19311523 81.84472656 C24.86221924 81.27866699 25.53132324 80.71260742 26.22070312 80.12939453 C27.50564977 75.41638363 27.50564977 75.41638363 26.08007812 70.92626953 C24.32034972 68.87523925 24.32034972 68.87523925 21.52148438 68.73876953 C20.53535156 68.78517578 19.54921875 68.83158203 18.53320312 68.87939453 C17.53933594 68.91548828 16.54546875 68.95158203 15.52148438 68.98876953 C14.76222656 69.03517578 14.00296875 69.08158203 13.22070312 69.12939453 C11.23228931 73.62259319 10.98842357 76.28829629 12.22070312 81.12939453 C12.89069336 81.73493164 13.56068359 82.34046875 14.25097656 82.96435547 C16.85265859 85.8240129 16.686163 87.39094105 16.61132812 91.20751953 C16.59199219 92.94775391 16.59199219 92.94775391 16.57226562 94.72314453 C16.53875 95.92970703 16.50523437 97.13626953 16.47070312 98.37939453 C16.45265625 99.60142578 16.43460937 100.82345703 16.41601562 102.08251953 C16.36888413 105.09893531 16.30309725 108.11376944 16.22070312 111.12939453 C13.22070312 111.12939453 13.22070312 111.12939453 11.16992188 109.29345703 C-2.58230062 93.85486529 -6.43495833 79.3562885 -6.20507812 59.17236328 C-6.20014169 57.49083343 -6.19685099 55.80929804 -6.19511414 54.12776184 C-6.187542 50.63748067 -6.16717448 47.14761966 -6.13598633 43.6574707 C-6.09601412 39.17616489 -6.07830603 34.69512809 -6.06867695 30.21366405 C-6.05874357 25.92902735 -6.03887105 21.64445639 -6.01757812 17.35986328 C-6.01418238 16.54220175 -6.01078663 15.72454021 -6.00728798 14.88210106 C-5.99577585 12.58709084 -5.97727517 10.29225526 -5.95629883 7.99731445 C-5.94645462 6.6916301 -5.93661041 5.38594574 -5.9264679 4.04069519 C-5.68931165 -0.65067085 -4.25535795 0.00375848 0 0 Z " fill="#2AA77D" transform="translate(450.779296875,56.87060546875)"/>
<path d="M0 0 C3.49314469 2.63496728 6.21382208 5.28273914 8.875 8.75 C11.32477952 11.88663359 13.79370559 14.96246452 16.4375 17.9375 C20.02602302 21.98482962 23.43100456 26.17138061 26.84375 30.3671875 C29.51137684 33.62439853 32.24272925 36.81853375 35 40 C35.63651717 33.86197788 35.63651717 33.86197788 33.0625 28.5625 C32.0415625 27.7890625 32.0415625 27.7890625 31 27 C29.4878133 23.97562661 29.82736631 21.33758466 30 18 C31.58636213 13.78027673 33.86907284 12.46325862 37.83984375 10.6328125 C41.41187646 9.58639424 43.699881 10.47686816 47 12 C50.22327156 14.29021927 50.89178585 15.57487297 51.875 19.4375 C52.0020385 23.05809733 51.74029719 24.86746506 50 28 C49.48671143 28.4532666 48.97342285 28.9065332 48.44458008 29.37353516 C46.59821207 31.4523764 46.62577456 32.52555721 46.63671875 35.2734375 C46.63736328 36.0984375 46.63800781 36.9234375 46.63867188 37.7734375 C46.65478516 38.63195312 46.67089844 39.49046875 46.6875 40.375 C46.68427734 41.22578125 46.68105469 42.0765625 46.67773438 42.953125 C46.73320183 49.42768921 47.79306653 53.75147635 51.8125 58.9375 C52.33714844 59.61683594 52.86179687 60.29617187 53.40234375 60.99609375 C55.55963403 63.70193706 57.75874392 66.36322814 60 69 C59.67 69.66 59.34 70.32 59 71 C57.02 69.35 55.04 67.7 53 66 C52.01 66.495 52.01 66.495 51 67 C50.79697266 66.12988281 50.79697266 66.12988281 50.58984375 65.2421875 C49.01079255 59.51221728 47.15237207 56.90376852 42.453125 53.33984375 C41 52 41 52 40.5625 49.3125 C40.706875 48.549375 40.85125 47.78625 41 47 C41 46.01 41 45.02 41 44 C41 43.34 41 42.68 41 42 C38.36 42.33 35.72 42.66 33 43 C32.505 41.02 32.505 41.02 32 39 C31.01 39 30.02 39 29 39 C29 39.66 29 40.32 29 41 C28.34 41 27.68 41 27 41 C26.34 39.02 25.68 37.04 25 35 C25.66 34.34 26.32 33.68 27 33 C26.2575 33.04125 25.515 33.0825 24.75 33.125 C21.91241048 32.99601866 20.41226062 32.42948778 18 31 C17.67 32.65 17.34 34.3 17 36 C16.34 36 15.68 36 15 36 C14.85304688 35.21496094 14.70609375 34.42992187 14.5546875 33.62109375 C13.09307362 26.77502873 11.73426524 21.34213148 6 17 C2.09770839 14.76228744 -1.88659948 12.8170847 -6 11 C-5.34 10.67 -4.68 10.34 -4 10 C-3.67 9.34 -3.34 8.68 -3 8 C-1.68 8.99 -0.36 9.98 1 11 C1.33 10.34 1.66 9.68 2 9 C2.66 9.33 3.32 9.66 4 10 C3.71125 9.44570312 3.4225 8.89140625 3.125 8.3203125 C2.568125 7.23363281 2.568125 7.23363281 2 6.125 C1.62875 5.40570313 1.2575 4.68640625 0.875 3.9453125 C0 2 0 2 0 0 Z M40 32 C38.53273202 35.81489674 39.56663581 38.29011622 41 42 C41.66 42 42.32 42 43 42 C43.33 38.7 43.66 35.4 44 32 C42.68 32 41.36 32 40 32 Z " fill="#278982" transform="translate(383,86)"/>
<path d="M0 0 C2.88137851 1.13197013 4.00842887 2.01151945 5.875 4.5625 C7.84403935 7.29014345 7.84403935 7.29014345 11.25 7.8125 C12.61125 7.9053125 12.61125 7.9053125 14 8 C14 8.66 14 9.32 14 10 C14.66 10 15.32 10 16 10 C16.33 10.99 16.66 11.98 17 13 C16.34 13 15.68 13 15 13 C14.67 13.66 14.34 14.32 14 15 C14.99 15.33 15.98 15.66 17 16 C17 16.66 17 17.32 17 18 C17.66 18.33 18.32 18.66 19 19 C20.68732277 20.98260426 22.35366057 22.9832342 24 25 C24.66 25.66 25.32 26.32 26 27 C27.01405257 28.32267727 28.01268258 29.65724831 29 31 C29.515625 31.680625 30.03125 32.36125 30.5625 33.0625 C31.75742215 34.67304725 32.88759424 36.33139136 34 38 C34.99 38 35.98 38 37 38 C37.69937202 39.4317616 38.38412718 40.87067032 39.0625 42.3125 C39.44535156 43.11300781 39.82820313 43.91351563 40.22265625 44.73828125 C41 47 41 47 40 50 C40.66 50 41.32 50 42 50 C42 51.65 42 53.3 42 55 C41.01 55 40.02 55 39 55 C39.18464366 59.34184202 39.18464366 59.34184202 41 63 C41.33 61.68 41.66 60.36 42 59 C42.66 59 43.32 59 44 59 C44 57.35 44 55.7 44 54 C46.01822917 54.26041667 48.03645833 54.52083333 50.0546875 54.78125 C52.00498344 55.0372485 52.00498344 55.0372485 54 55 C54.33 55.99 54.66 56.98 55 58 C55.99 58.495 55.99 58.495 57 59 C56.67 60.65 56.34 62.3 56 64 C57.65 64.33 59.3 64.66 61 65 C61 64.34 61 63.68 61 63 C62.32 63.33 63.64 63.66 65 64 C65.79953138 67.28696233 66.09658936 68.71023192 65 72 C65.80006501 74.98206048 66.3057561 76.55210071 68.9375 78.25 C71.99858206 79.36312075 74.78251724 80.17096059 78.01171875 80.53515625 C78.76904297 80.62216797 79.52636719 80.70917969 80.30664062 80.79882812 C81.09232422 80.88583984 81.87800781 80.97285156 82.6875 81.0625 C83.48478516 81.15337891 84.28207031 81.24425781 85.10351562 81.33789062 C87.068685 81.56147277 89.0343017 81.78111684 91 82 C91 81.34 91 80.68 91 80 C94.22791555 77.8480563 95.28400809 77.79913557 99 78 C98.01 78.66 97.02 79.32 96 80 C95.46246094 80.69351563 94.92492187 81.38703125 94.37109375 82.1015625 C90.79298565 84.96640688 87.50833362 84.51069613 83.0625 84.375 C82.26392578 84.37371094 81.46535156 84.37242187 80.64257812 84.37109375 C75.13297787 84.28892904 71.07252203 83.8985512 66.859375 80.0390625 C61.88247355 74.34327528 57.27332852 68.49834725 52.84765625 62.37109375 C51.21903484 59.9300871 51.21903484 59.9300871 49 59 C48.7280321 63.01945503 48.7280321 63.01945503 49 67 C50.31200404 68.35432675 51.64631404 69.68733482 53 71 C54.26350609 74.91520637 54.40576981 77.98557547 52.875 81.8125 C49.74848568 85.46010004 47.35472319 86.82758069 42.5625 87.4375 C38.29031307 86.91284546 36.24968229 85.79623825 33 83 C31.22334738 80.06466089 30.98220646 78.4270449 31.125 75 C32.13477556 71.53791236 33.49920279 69.57657894 36 67 C36.66 67 37.32 67 38 67 C37.83639178 63.49643383 37.61096319 59.9993786 37.375 56.5 C37.32988281 55.51773438 37.28476562 54.53546875 37.23828125 53.5234375 C36.70565085 46.26029574 34.80967712 42.37002785 30 37 C29.12195738 35.86671243 28.25300825 34.72630477 27.39453125 33.578125 C22.07872888 26.69681424 16.52876215 20.1926944 10.59375 13.83984375 C0 2.24096386 0 2.24096386 0 0 Z " fill="#1D4A72" transform="translate(342,113)"/>
<path d="M0 0 C0.33 0.99 0.66 1.98 1 3 C0.01 4.485 0.01 4.485 -1 6 C-0.98952718 9.4917453 -0.98952718 9.4917453 0 13 C0.66999023 13.60811523 1.33998047 14.21623047 2.03027344 14.84277344 C4.63545272 17.69594202 4.46540551 19.26431886 4.390625 23.078125 C4.37128906 24.81835938 4.37128906 24.81835938 4.3515625 26.59375 C4.31804687 27.8003125 4.28453125 29.006875 4.25 30.25 C4.23195313 31.47203125 4.21390625 32.6940625 4.1953125 33.953125 C4.148181 36.96954078 4.08239413 39.98437491 4 43 C1 43 1 43 -1.05078125 41.1640625 C-8.8353375 32.42492336 -17.11335757 22.24514321 -17.1875 9.9375 C-17.0946875 8.4834375 -17.0946875 8.4834375 -17 7 C-13.46209597 10.69172595 -13.40884117 14.09390595 -13 19 C-11.68 19.33 -10.36 19.66 -9 20 C-5.07260562 15.09075703 -4.56822107 12.26079448 -5 6 C-5.66 6 -6.32 6 -7 6 C-5.6100869 3.22017379 -3.81341647 3.12536659 -1 2 C-0.67 1.34 -0.34 0.68 0 0 Z " fill="#258985" transform="translate(463,125)"/>
<path d="M0 0 C0.33 0 0.66 0 1 0 C1.19827341 4.49959243 1.38168337 8.99967493 1.5625 13.5 C1.61857422 14.7684375 1.67464844 16.036875 1.73242188 17.34375 C1.78076172 18.58125 1.82910156 19.81875 1.87890625 21.09375 C1.94960327 22.79047852 1.94960327 22.79047852 2.02172852 24.52148438 C1.99773434 28.36270913 1.47645459 32.18836329 1 36 C1 43.26 1 50.52 1 58 C16.51 58 32.02 58 48 58 C48.144375 53.978125 48.28875 49.95625 48.4375 45.8125 C48.77059118 36.85524374 49.15080983 27.92553074 50 19 C50.33 19 50.66 19 51 19 C51 32.86 51 46.72 51 61 C33.51 61 16.02 61 -2 61 C-2.04125 52.79125 -2.0825 44.5825 -2.125 36.125 C-2.14320801 33.55348145 -2.16141602 30.98196289 -2.18017578 28.33251953 C-2.18602381 26.26595264 -2.19111863 24.19938341 -2.1953125 22.1328125 C-2.20554443 21.08279053 -2.21577637 20.03276855 -2.22631836 18.95092773 C-2.22785018 12.39627572 -1.55775973 6.37002407 0 0 Z " fill="#121948" transform="translate(314,181)"/>
<path d="M0 0 C3.49314469 2.63496728 6.21382208 5.28273914 8.875 8.75 C11.32477952 11.88663359 13.79370559 14.96246452 16.4375 17.9375 C20.02602302 21.98482962 23.43100456 26.17138061 26.84375 30.3671875 C29.51137684 33.62439853 32.24272925 36.81853375 35 40 C35.63651717 33.86197788 35.63651717 33.86197788 33.0625 28.5625 C32.0415625 27.7890625 32.0415625 27.7890625 31 27 C29.5216774 24.04335481 29.93967217 21.25770263 30 18 C32 21 32 21 32.3125 23.375 C32.81180301 26.24196881 32.81180301 26.24196881 35.5 28.3125 C38.86866176 31.9338114 38.75330963 34.14842282 39 39 C39.66 39 40.32 39 41 39 C41 39.99 41 40.98 41 42 C38.36 42.33 35.72 42.66 33 43 C32.505 41.02 32.505 41.02 32 39 C31.01 39 30.02 39 29 39 C29 39.66 29 40.32 29 41 C28.34 41 27.68 41 27 41 C26.34 39.02 25.68 37.04 25 35 C25.66 34.34 26.32 33.68 27 33 C26.2575 33.04125 25.515 33.0825 24.75 33.125 C21.91241048 32.99601866 20.41226062 32.42948778 18 31 C17.67 32.65 17.34 34.3 17 36 C16.34 36 15.68 36 15 36 C14.85304688 35.21496094 14.70609375 34.42992187 14.5546875 33.62109375 C13.09307362 26.77502873 11.73426524 21.34213148 6 17 C2.09770839 14.76228744 -1.88659948 12.8170847 -6 11 C-5.34 10.67 -4.68 10.34 -4 10 C-3.67 9.34 -3.34 8.68 -3 8 C-1.68 8.99 -0.36 9.98 1 11 C1.33 10.34 1.66 9.68 2 9 C2.66 9.33 3.32 9.66 4 10 C3.71125 9.44570312 3.4225 8.89140625 3.125 8.3203125 C2.568125 7.23363281 2.568125 7.23363281 2 6.125 C1.62875 5.40570313 1.2575 4.68640625 0.875 3.9453125 C0 2 0 2 0 0 Z " fill="#24787D" transform="translate(383,86)"/>
<path d="M0 0 C1.485 1.98 1.485 1.98 3 4 C2.00769103 5.67125722 1.00509214 7.33639922 0 9 C-0.39832031 9.68578125 -0.79664063 10.3715625 -1.20703125 11.078125 C-1.63371094 11.79484375 -2.06039063 12.5115625 -2.5 13.25 C-3.10328125 14.27867187 -3.10328125 14.27867187 -3.71875 15.328125 C-5 17 -5 17 -8 18 C-8.99 17.67 -9.98 17.34 -11 17 C-11.33 17.66 -11.66 18.32 -12 19 C-12.66 19 -13.32 19 -14 19 C-14 19.66 -14 20.32 -14 21 C-13.01 21.66 -12.02 22.32 -11 23 C-10.731875 23.763125 -10.46375 24.52625 -10.1875 25.3125 C-8.53112551 29.06113701 -6.23871602 30.50348974 -3 33 C-1 35 -1 35 0 37 C1.98917189 37.46910332 1.98917189 37.46910332 4.3125 37.625 C5.09238281 37.69976562 5.87226563 37.77453125 6.67578125 37.8515625 C8.78014747 37.985959 10.89134649 38 13 38 C12.34 39.65 11.68 41.3 11 43 C-3.23427903 39.03306978 -14.65544701 29.97276623 -23.35546875 18.17578125 C-25.41153949 15.45551663 -27.68828156 12.98227407 -30.03125 10.5078125 C-30.51078125 9.76144531 -30.51078125 9.76144531 -31 9 C-30.67 8.01 -30.34 7.02 -30 6 C-28.06372231 5.89192869 -26.12572244 5.8143775 -24.1875 5.75 C-22.56908203 5.68039063 -22.56908203 5.68039063 -20.91796875 5.609375 C-18 6 -18 6 -16.38671875 7.94921875 C-15.92910156 8.62597656 -15.47148437 9.30273438 -15 10 C-12.00385433 11.1277627 -9.17792131 11.32336743 -6 11 C-2.37077541 8.50490809 -1.23571547 6.96099384 -0.1875 2.6875 C-0.125625 1.800625 -0.06375 0.91375 0 0 Z M-15 22 C-14 24 -14 24 -14 24 Z " fill="#1D537B" transform="translate(451,197)"/>
<path d="M0 0 C0.99 0.33 1.98 0.66 3 1 C2.67 2.32 2.34 3.64 2 5 C1.34 4.67 0.68 4.34 0 4 C0 14.56 0 25.12 0 36 C1.32 36.66 2.64 37.32 4 38 C3.01 40.475 3.01 40.475 2 43 C2.66 43 3.32 43 4 43 C4 43.66 4 44.32 4 45 C6.31 45.33 8.62 45.66 11 46 C11.33 48.31 11.66 50.62 12 53 C12.66 53 13.32 53 14 53 C14 53.66 14 54.32 14 55 C16.97 54.505 16.97 54.505 20 54 C19.98839844 52.73671875 19.97679687 51.4734375 19.96484375 50.171875 C19.87136142 34.76189722 20.36373387 19.3956098 21 4 C21.33 4 21.66 4 22 4 C22 24.79 22 45.58 22 67 C21.01 67 20.02 67 19 67 C17.08984375 65.015625 17.08984375 65.015625 14.9375 62.25 C14.14988281 61.25097656 13.36226563 60.25195312 12.55078125 59.22265625 C12.13650879 58.69430176 11.72223633 58.16594727 11.29541016 57.62158203 C9.9914127 55.9892505 8.65173933 54.39553248 7.29296875 52.80859375 C6.84767822 52.2868457 6.4023877 51.76509766 5.94360352 51.22753906 C4.68555486 49.75822395 3.42487442 48.29116341 2.1640625 46.82421875 C-2.14778605 41.1970229 -3.45532531 36.63723655 -3.3984375 29.609375 C-3.40130768 28.82355042 -3.40417786 28.03772583 -3.40713501 27.22808838 C-3.40916658 25.57750726 -3.40370046 23.92690156 -3.39111328 22.27636719 C-3.37495918 19.74359991 -3.39103583 17.21240745 -3.41015625 14.6796875 C-3.40817534 13.07291314 -3.40433483 11.46613976 -3.3984375 9.859375 C-3.40754654 8.72190826 -3.40754654 8.72190826 -3.4168396 7.5614624 C-3.38818359 5.43652344 -3.38818359 5.43652344 -3 2 C-2.01 1.34 -1.02 0.68 0 0 Z " fill="#2A7B7F" transform="translate(476,139)"/>
<path d="M0 0 C8.46278367 3.97004442 13.6757347 12.53035025 18.1015625 20.45703125 C19.1484027 23.42004417 18.88620853 25.02639669 18 28 C17.67 28 17.34 28 17 28 C16.67 26.02 16.34 24.04 16 22 C15.030625 21.87625 14.06125 21.7525 13.0625 21.625 C11.5465625 21.315625 11.5465625 21.315625 10 21 C8.64560332 18.29120665 8.93498549 15.99066732 9 13 C8.01 12.67 7.02 12.34 6 12 C5.01 12.495 5.01 12.495 4 13 C3.53248212 15.35599235 3.53248212 15.35599235 3.375 18.0625 C3.30023438 18.98160156 3.22546875 19.90070313 3.1484375 20.84765625 C3.09945313 21.55792969 3.05046875 22.26820313 3 23 C4.65 23 6.3 23 8 23 C8.33 24.32 8.66 25.64 9 27 C8.34 27 7.68 27 7 27 C7.33 28.65 7.66 30.3 8 32 C4 32 4 32 1.77441406 30.40722656 C-0.55092408 27.25259887 -0.46139714 25.37684258 -0.390625 21.484375 C-0.37773437 20.23398438 -0.36484375 18.98359375 -0.3515625 17.6953125 C-0.31804687 16.39335937 -0.28453125 15.09140625 -0.25 13.75 C-0.23195313 12.43257812 -0.21390625 11.11515625 -0.1953125 9.7578125 C-0.14816271 6.50447692 -0.08236044 3.25260375 0 0 Z " fill="#1C4268" transform="translate(343,130)"/>
<path d="M0 0 C2.01822917 0.26041667 4.03645833 0.52083333 6.0546875 0.78125 C8.00498344 1.0372485 8.00498344 1.0372485 10 1 C10.33 1.99 10.66 2.98 11 4 C11.66 4.33 12.32 4.66 13 5 C12.67 6.65 12.34 8.3 12 10 C13.65 10.33 15.3 10.66 17 11 C17 10.34 17 9.68 17 9 C18.32 9.33 19.64 9.66 21 10 C21.79953138 13.28696233 22.09658936 14.71023192 21 18 C21.80006501 20.98206048 22.3057561 22.55210071 24.9375 24.25 C27.99858206 25.36312075 30.78251724 26.17096059 34.01171875 26.53515625 C34.76904297 26.62216797 35.52636719 26.70917969 36.30664062 26.79882812 C37.09232422 26.88583984 37.87800781 26.97285156 38.6875 27.0625 C39.48478516 27.15337891 40.28207031 27.24425781 41.10351562 27.33789062 C43.068685 27.56147277 45.0343017 27.78111684 47 28 C47 27.34 47 26.68 47 26 C50.22791555 23.8480563 51.28400809 23.79913557 55 24 C54.01 24.66 53.02 25.32 52 26 C51.46246094 26.69351563 50.92492187 27.38703125 50.37109375 28.1015625 C46.79298565 30.96640688 43.50833362 30.51069613 39.0625 30.375 C38.26392578 30.37371094 37.46535156 30.37242187 36.64257812 30.37109375 C31.13297787 30.28892904 27.07252203 29.8985512 22.859375 26.0390625 C22.16328125 25.24242187 21.4671875 24.44578125 20.75 23.625 C19.59371094 22.30242187 19.59371094 22.30242187 18.4140625 20.953125 C15.06679856 16.85841377 11.98563099 12.59962546 8.9453125 8.2734375 C8.30335938 7.52320313 7.66140625 6.77296875 7 6 C4.0745356 5.7763932 4.0745356 5.7763932 2 7 C2 6.01 2 5.02 2 4 C1.34 3.67 0.68 3.34 0 3 C0 2.01 0 1.02 0 0 Z " fill="#1F5171" transform="translate(386,167)"/>
<path d="M0 0 C0.33 0 0.66 0 1 0 C1.19827341 4.49959243 1.38168337 8.99967493 1.5625 13.5 C1.61857422 14.7684375 1.67464844 16.036875 1.73242188 17.34375 C2.14631301 27.93936296 2.14631301 27.93936296 1.53125 32.1875 C0.81794797 37.30649106 0.89348073 42.33958734 0.9375 47.5 C0.94201172 48.51320312 0.94652344 49.52640625 0.95117188 50.5703125 C0.96285407 53.04693827 0.97923418 55.52343657 1 58 C1.8979126 57.99419922 2.7958252 57.98839844 3.72094727 57.98242188 C13.13947549 57.94838266 22.5240936 58.15600391 31.9375 58.5 C33.31444473 58.54841646 34.69139787 58.5965944 36.06835938 58.64453125 C39.37899603 58.76069394 42.6895295 58.87921039 46 59 C46 59.33 46 59.66 46 60 C39.62793828 60.02529825 33.25588946 60.04284496 26.88378906 60.05493164 C24.71483883 60.05996891 22.545892 60.06679891 20.37695312 60.07543945 C17.26431437 60.08753151 14.1517204 60.09323428 11.0390625 60.09765625 C10.065065 60.10281754 9.0910675 60.10797882 8.08755493 60.11329651 C7.18677216 60.11337204 6.28598938 60.11344757 5.35791016 60.11352539 C4.56293121 60.115746 3.76795227 60.11796661 2.94888306 60.12025452 C1 60 1 60 -1 59 C-1.19487974 52.20511583 -1.37197014 45.40992928 -1.53710938 38.61425781 C-1.5952548 36.30588458 -1.65736687 33.99760752 -1.72363281 31.68945312 C-1.81856344 28.35825127 -1.89889051 25.02695622 -1.9765625 21.6953125 C-2.00875885 20.67511017 -2.0409552 19.65490784 -2.0741272 18.60379028 C-2.20713265 12.14030948 -1.54919852 6.27822865 0 0 Z " fill="#0E1551" transform="translate(314,181)"/>
<path d="M0 0 C0.99 0 1.98 0 3 0 C4.640625 1.64453125 4.640625 1.64453125 6.25 3.8125 C6.79140625 4.52019531 7.3328125 5.22789063 7.890625 5.95703125 C8.25671875 6.63121094 8.6228125 7.30539063 9 8 C8.67 8.99 8.34 9.98 8 11 C7.01 11.474375 6.02 11.94875 5 12.4375 C1.86110939 13.65795597 1.86110939 13.65795597 1.125 16.1875 C1.08375 16.785625 1.0425 17.38375 1 18 C1.66 18 2.32 18 3 18 C2.8246875 18.84046875 2.649375 19.6809375 2.46875 20.546875 C1.96309234 24.27188645 2.15578272 27.51054861 2.5 31.25 C2.97372488 37.32447217 2.92045132 42.98166442 2 49 C1.67 49 1.34 49 1 49 C0.02941168 43.33431663 -0.13123058 37.87005197 -0.09765625 32.12890625 C-0.0962413 31.206577 -0.09482635 30.28424774 -0.09336853 29.33396912 C-0.08780506 26.41011202 -0.07525942 23.48633365 -0.0625 20.5625 C-0.05748028 18.57096465 -0.0529182 16.5794281 -0.04882812 14.58789062 C-0.03784762 9.72523044 -0.02060839 4.86262853 0 0 Z " fill="#1F476D" transform="translate(312,92)"/>
<path d="M0 0 C7.03182235 2.78076611 12.11154652 10.93776355 15.625 17.375 C16.9849988 20.96045139 17.32789509 22.45894643 16 26 C15.67 26 15.34 26 15 26 C14.67 24.02 14.34 22.04 14 20 C13.030625 19.87625 12.06125 19.7525 11.0625 19.625 C9.5465625 19.315625 9.5465625 19.315625 8 19 C6.64560332 16.29120665 6.93498549 13.99066732 7 11 C4.03 10.505 4.03 10.505 1 10 C-0.1577506 6.52674819 -0.06866652 3.63932552 0 0 Z " fill="#154670" transform="translate(345,132)"/>
<path d="M0 0 C2 3 2 3 3.8125 6.375 C5.29425489 9.02538421 6.5298258 10.5298258 8.75 12.75 C9.4925 13.4925 10.235 14.235 11 15 C11 15.99 11 16.98 11 18 C11.3185177 20.10820797 11.3185177 20.10820797 12 22 C12.66 22.33 13.32 22.66 14 23 C14.28875 23.66 14.5775 24.32 14.875 25 C15.8234856 27.20005805 15.8234856 27.20005805 18.125 27.75 C18.74375 27.8325 19.3625 27.915 20 28 C19.67 29.32 19.34 30.64 19 32 C19.66 32 20.32 32 21 32 C23.125 33.875 23.125 33.875 25 36 C25 36.66 25 37.32 25 38 C25.66 38 26.32 38 27 38 C27.33 39.65 27.66 41.3 28 43 C22.34910888 38.73461633 18.33703592 33.54821485 14 28 C13.29101562 27.10667969 12.58203125 26.21335937 11.8515625 25.29296875 C6.34257411 18.08484793 0 9.34207025 0 0 Z " fill="#255773" transform="translate(314,69)"/>
<path d="M0 0 C2.475 0.99 2.475 0.99 5 2 C5 2.66 5 3.32 5 4 C5.99 4.33 6.98 4.66 8 5 C12.67615941 9.7713484 14.83857231 14.49600494 16 21 C14.02 21.99 14.02 21.99 12 23 C11.67 20.69 11.34 18.38 11 16 C8.03 15.505 8.03 15.505 5 15 C5.33 14.01 5.66 13.02 6 12 C5.12085312 9.3430809 5.12085312 9.3430809 4 7 C3.34 7 2.68 7 2 7 C2 5.68 2 4.36 2 3 C1.01 3.99 0.02 4.98 -1 6 C-0.67 4.02 -0.34 2.04 0 0 Z " fill="#217A84" transform="translate(444,160)"/>
<path d="M0 0 C1.93559313 -0.13504138 3.873872 -0.23201129 5.8125 -0.3125 C6.89144531 -0.37050781 7.97039062 -0.42851562 9.08203125 -0.48828125 C12 0 12 0 13.88671875 2.51953125 C14.25410156 3.33808594 14.62148438 4.15664062 15 5 C13.35 5.33 11.7 5.66 10 6 C10.99 7.485 10.99 7.485 12 9 C11.01 9 10.02 9 9 9 C9 9.66 9 10.32 9 11 C8.67 11.66 8.34 12.32 8 13 C5.03 9.7 2.06 6.4 -1 3 C-0.67 2.01 -0.34 1.02 0 0 Z " fill="#1C5078" transform="translate(421,203)"/>
<path d="M0 0 C0.99 0.33 1.98 0.66 3 1 C2.67 2.32 2.34 3.64 2 5 C1.34 4.67 0.68 4.34 0 4 C0.01047363 4.85754883 0.02094727 5.71509766 0.03173828 6.59863281 C0.06588296 9.78921513 0.09092959 12.97970412 0.10986328 16.17041016 C0.11990253 17.54967315 0.13353677 18.92891496 0.15087891 20.30810547 C0.17521754 22.2938514 0.18543255 24.2797545 0.1953125 26.265625 C0.20578613 27.45961914 0.21625977 28.65361328 0.22705078 29.88378906 C0.01034762 32.85798164 -0.43813878 34.50318379 -2 37 C-2.33 37 -2.66 37 -3 37 C-3.07404737 32.05211686 -3.12855246 27.10455476 -3.16479492 22.15625 C-3.17990003 20.4722736 -3.20038546 18.78833665 -3.22631836 17.10449219 C-3.26262721 14.68675007 -3.27970847 12.26952708 -3.29296875 9.8515625 C-3.30845261 9.0963028 -3.32393646 8.34104309 -3.33988953 7.56289673 C-3.34057617 5.43994141 -3.34057617 5.43994141 -3 2 C-2.01 1.34 -1.02 0.68 0 0 Z " fill="#398C85" transform="translate(476,139)"/>
<path d="M0 0 C1.98 0.99 3.96 1.98 6 3 C6.3125 5.6875 6.3125 5.6875 6 9 C3.827365 11.57285724 2.02006162 13.48996919 -1 15 C-1.98419339 10.94020228 -2.23183367 7.17300608 -2 3 C-1.34 2.01 -0.68 1.02 0 0 Z " fill="#1B4C7C" transform="translate(388,182)"/>
<path d="M0 0 C0.99 0 1.98 0 3 0 C3.38297872 21.53191489 3.38297872 21.53191489 1 32 C0.67 32 0.34 32 0 32 C0 21.44 0 10.88 0 0 Z " fill="#142557" transform="translate(312,159)"/>
<path d="M0 0 C2 3 2 3 2.3125 5.375 C2.81180301 8.24196881 2.81180301 8.24196881 5.5 10.3125 C8.86866176 13.9338114 8.75330963 16.14842282 9 21 C9.66 21 10.32 21 11 21 C11 21.99 11 22.98 11 24 C7.04 24.495 7.04 24.495 3 25 C1.33333333 21.66666667 -0.33333333 18.33333333 -2 15 C3.875 19.75 3.875 19.75 5 22 C5.63651717 15.86197788 5.63651717 15.86197788 3.0625 10.5625 C2.381875 10.046875 1.70125 9.53125 1 9 C-0.4783226 6.04335481 -0.06032783 3.25770263 0 0 Z " fill="#2A8588" transform="translate(413,104)"/>
<path d="M0 0 C4.73197247 0.83676667 6.82395031 3.81151691 9.75 7.375 C10.25660156 7.96539062 10.76320313 8.55578125 11.28515625 9.1640625 C15 13.60985933 15 13.60985933 15 17 C13.02 17 11.04 17 9 17 C8.896875 15.88625 8.79375 14.7725 8.6875 13.625 C8.460625 12.42875 8.23375 11.2325 8 10 C5.28450846 7.69328085 5.28450846 7.69328085 2.8125 8.375 C2.214375 8.58125 1.61625 8.7875 1 9 C0.91773332 5.95613276 1.02391783 3.92824652 2 1 C1.34 0.67 0.68 0.34 0 0 Z " fill="#1C4A6F" transform="translate(320,103)"/>
<path d="M0 0 C10.87813135 -0.94683929 19.39345492 2.43184717 28 9 C28.33 9.66 28.66 10.32 29 11 C25.67869165 10.33420777 23.08816413 9.05754768 20.125 7.4375 C16.23032253 5.4325477 13.46268303 4.41280487 9 5 C8.34 3.68 7.68 2.36 7 1 C6.01 1 5.02 1 4 1 C3.67 1.99 3.34 2.98 3 4 C2.34 3.67 1.68 3.34 1 3 C1.33 2.34 1.66 1.68 2 1 C1.34 0.67 0.68 0.34 0 0 Z " fill="#2E7B7D" transform="translate(339,59)"/>
<path d="M0 0 C2.42869909 3.64304864 2.25675675 6.30722339 2.1953125 10.51171875 C2.1924826 11.23994339 2.18965271 11.96816803 2.18673706 12.71846008 C2.17555257 15.04164137 2.15045166 17.36443547 2.125 19.6875 C2.11496794 21.2636663 2.10584248 22.83983865 2.09765625 24.41601562 C2.07561896 28.27749267 2.04110141 32.13868071 2 36 C1.87625 35.360625 1.7525 34.72125 1.625 34.0625 C1.41875 33.381875 1.2125 32.70125 1 32 C0.34 31.67 -0.32 31.34 -1 31 C-1 23.41 -1 15.82 -1 8 C-0.34 8 0.32 8 1 8 C0.67 7.34 0.34 6.68 0 6 C-0.039992 4.00039988 -0.04346799 1.99952758 0 0 Z " fill="#1F4264" transform="translate(335,120)"/>
<path d="M0 0 C0.66 0.33 1.32 0.66 2 1 C2 9.58 2 18.16 2 27 C1.01 27 0.02 27 -1 27 C-2.6875 25 -2.6875 25 -4 23 C-3.01 22.67 -2.02 22.34 -1 22 C-0.67 14.74 -0.34 7.48 0 0 Z " fill="#397D7A" transform="translate(465,141)"/>
<path d="M0 0 C-0.99 0.66 -1.98 1.32 -3 2 C-3.53496094 2.69222656 -4.06992187 3.38445312 -4.62109375 4.09765625 C-8.22634179 6.98067069 -11.58280092 6.54780236 -16.0625 6.4375 C-16.87783203 6.44458984 -17.69316406 6.45167969 -18.53320312 6.45898438 C-24.50516726 6.39519182 -24.50516726 6.39519182 -26.75561523 4.59790039 C-28 3 -28 3 -28 1 C-27.01 1.33 -26.02 1.66 -25 2 C-23.66709486 2.20831457 -22.32886749 2.38396231 -20.98828125 2.53515625 C-20.23095703 2.62216797 -19.47363281 2.70917969 -18.69335938 2.79882812 C-17.90767578 2.88583984 -17.12199219 2.97285156 -16.3125 3.0625 C-15.11657227 3.19881836 -15.11657227 3.19881836 -13.89648438 3.33789062 C-11.931315 3.56147277 -9.9656983 3.78111684 -8 4 C-8 3.34 -8 2.68 -8 2 C-4.77208445 -0.1519437 -3.71599191 -0.20086443 0 0 Z " fill="#255979" transform="translate(441,191)"/>
<path d="M0 0 C0.7734375 0.00644531 1.546875 0.01289062 2.34375 0.01953125 C4.5 0.1875 4.5 0.1875 7.5 1.1875 C7.17 2.1775 6.84 3.1675 6.5 4.1875 C5.84 3.8575 5.18 3.5275 4.5 3.1875 C-0.51121384 2.70024751 -0.51121384 2.70024751 -4.875 4.875 C-6.73688689 7.52460827 -7.42278899 8.94463747 -7.5 12.1875 C-6.15873157 15.45500881 -6.15873157 15.45500881 -4.5 18.1875 C-6.4375 17.375 -6.4375 17.375 -8.5 16.1875 C-9.89268276 12.00945172 -10.16403661 8.07745034 -8.6875 3.875 C-6.27661601 0.44900696 -3.93073444 -0.07206346 0 0 Z " fill="#266F78" transform="translate(367.5,87.8125)"/>
<path d="M0 0 C2.53513911 2.64536255 3.15918784 4.51140904 3.375 8.0625 C3.5611226 12.12624174 3.5611226 12.12624174 6.5625 14 C7.7690625 14.495 7.7690625 14.495 9 15 C8.67 17.64 8.34 20.28 8 23 C2.94836989 17.76795453 -0.25 10.13136789 -0.25 2.8125 C-0.1675 1.884375 -0.085 0.95625 0 0 Z " fill="#277A7B" transform="translate(446,132)"/>
<path d="M0 0 C2.13604308 3.20406462 2.24208908 3.99600747 2.1953125 7.66796875 C2.18886719 8.56064453 2.18242187 9.45332031 2.17578125 10.37304688 C2.15902344 11.30181641 2.14226562 12.23058594 2.125 13.1875 C2.11597656 14.12787109 2.10695313 15.06824219 2.09765625 16.03710938 C2.07409056 18.35832968 2.04119116 20.67903644 2 23 C1.34 22.67 0.68 22.34 0 22 C-0.37890625 19.85546875 -0.37890625 19.85546875 -0.5625 17.1875 C-0.79281125 14.00544462 -1.13286253 11.0743965 -2 8 C-1.34 8 -0.68 8 0 8 C-0.66 6.35 -1.32 4.7 -2 3 C-1.34 3 -0.68 3 0 3 C0 2.01 0 1.02 0 0 Z " fill="#193E6E" transform="translate(362,156)"/>
<path d="M0 0 C4.54165313 -0.0291189 9.0832821 -0.0468389 13.625 -0.0625 C14.91019531 -0.07087891 16.19539063 -0.07925781 17.51953125 -0.08789062 C18.76347656 -0.09111328 20.00742187 -0.09433594 21.2890625 -0.09765625 C22.43068848 -0.10289307 23.57231445 -0.10812988 24.74853516 -0.11352539 C27.91881886 -0.00283445 30.88768854 0.40433244 34 1 C34 1.33 34 1.66 34 2 C33.17274414 1.99476318 32.34548828 1.98952637 31.49316406 1.98413086 C27.74545043 1.96334531 23.99774894 1.95033476 20.25 1.9375 C18.29707031 1.92493164 18.29707031 1.92493164 16.3046875 1.91210938 C15.05429687 1.90888672 13.80390625 1.90566406 12.515625 1.90234375 C11.36352539 1.89710693 10.21142578 1.89187012 9.02441406 1.88647461 C6.46451853 1.98256368 4.39168662 2.10576319 2 3 C1.67 3.66 1.34 4.32 1 5 C0.34 4.67 -0.32 4.34 -1 4 C-0.67 2.68 -0.34 1.36 0 0 Z " fill="#296671" transform="translate(313,57)"/>
<path d="M0 0 C0.99 1.32 1.98 2.64 3 4 C2.5875 4.680625 2.175 5.36125 1.75 6.0625 C-0.20965058 9.35191348 -2.1073853 12.67160863 -4 16 C-4.556875 15.855625 -5.11375 15.71125 -5.6875 15.5625 C-8.11384195 14.97230872 -10.54906345 14.476571 -13 14 C-12.67 13.34 -12.34 12.68 -12 12 C-10.72125 11.71125 -9.4425 11.4225 -8.125 11.125 C-5.37265749 10.48492035 -4.19724881 10.17816022 -2.0625 8.25 C-0.77223988 5.51768445 -0.3399172 2.99127139 0 0 Z " fill="#255F7C" transform="translate(451,197)"/>
<path d="M0 0 C3.96996957 1.32332319 5.76036395 4.0089399 8.14453125 7.24609375 C9 9 9 9 8 12 C7.01 12.33 6.02 12.66 5 13 C0.59225513 4.738041 0.59225513 4.738041 0 0 Z " fill="#227785" transform="translate(461,179)"/>
<path d="M0 0 C5.01591205 -0.41799267 8.90327917 0.06756466 13.3984375 2.4453125 C16.16221377 5.12819775 15.97715464 8.26193814 16.0625 11.953125 C16.041875 12.62859375 16.02125 13.3040625 16 14 C13.35603236 11.35603236 12.43225676 8.42496181 11 5 C9.94021067 3.71387324 9.94021067 3.71387324 7.49609375 3.90234375 C6.48675781 3.91394531 5.47742188 3.92554687 4.4375 3.9375 C3.42558594 3.94652344 2.41367187 3.95554687 1.37109375 3.96484375 C0.58863281 3.97644531 -0.19382812 3.98804687 -1 4 C-0.67 2.68 -0.34 1.36 0 0 Z " fill="#379580" transform="translate(465,122)"/>
<path d="M0 0 C2.31 0 4.62 0 7 0 C7.33 1.32 7.66 2.64 8 4 C7.34 4 6.68 4 6 4 C6.33 5.65 6.66 7.3 7 9 C5.68 9 4.36 9 3 9 C0 3.375 0 3.375 0 0 Z " fill="#184474" transform="translate(344,153)"/>
<path d="M0 0 C2 3 2 3 3.8125 6.375 C5.29425489 9.02538421 6.5298258 10.5298258 8.75 12.75 C9.4925 13.4925 10.235 14.235 11 15 C11 15.99 11 16.98 11 18 C10.34 18.33 9.68 18.66 9 19 C8.731875 18.195625 8.46375 17.39125 8.1875 16.5625 C7.795625 15.716875 7.40375 14.87125 7 14 C6.01 13.67 5.02 13.34 4 13 C2.83203125 11.07421875 2.83203125 11.07421875 1.8125 8.6875 C1.46832031 7.90761719 1.12414062 7.12773438 0.76953125 6.32421875 C0 4 0 4 0 0 Z " fill="#215D7E" transform="translate(314,69)"/>
<path d="M0 0 C7.92 0 15.84 0 24 0 C24 0.33 24 0.66 24 1 C18.06 1 12.12 1 6 1 C5.67 1.99 5.34 2.98 5 4 C2.9375 5.6875 2.9375 5.6875 1 7 C0.34 6.67 -0.32 6.34 -1 6 C-0.67 4.02 -0.34 2.04 0 0 Z " fill="#277788" transform="translate(315,58)"/>
<path d="M0 0 C2.01822917 0.26041667 4.03645833 0.52083333 6.0546875 0.78125 C8.00498344 1.0372485 8.00498344 1.0372485 10 1 C10.33 1.99 10.66 2.98 11 4 C11.66 4.33 12.32 4.66 13 5 C12.67 6.32 12.34 7.64 12 9 C11.34 8.67 10.68 8.34 10 8 C10 7.01 10 6.02 10 5 C7.65466049 4.23043864 7.65466049 4.23043864 5 4 C3.1645201 5.33378575 3.1645201 5.33378575 2 7 C2 6.01 2 5.02 2 4 C1.34 3.67 0.68 3.34 0 3 C0 2.01 0 1.02 0 0 Z " fill="#1B547D" transform="translate(386,167)"/>
<path d="M0 0 C2 1 2 1 2.875 3 C3.8234856 5.20005805 3.8234856 5.20005805 6.125 5.75 C6.74375 5.8325 7.3625 5.915 8 6 C7.67 6.99 7.34 7.98 7 9 C3.4375 10.6875 3.4375 10.6875 0 12 C0 8.04 0 4.08 0 0 Z " fill="#174E79" transform="translate(313,94)"/>
<path d="M0 0 C3.37885612 -0.28526928 6.63291991 -0.46087248 10 0 C12.125 2.5 12.125 2.5 13 5 C11.35 5.33 9.7 5.66 8 6 C7.67 5.01 7.34 4.02 7 3 C4.69 3.33 2.38 3.66 0 4 C0 2.68 0 1.36 0 0 Z " fill="#194E76" transform="translate(423,203)"/>
<path d="M0 0 C2.00720923 0.28674418 4.0085944 0.61866701 6 1 C5.34 2.98 4.68 4.96 4 7 C4.66 7 5.32 7 6 7 C6.33 8.32 6.66 9.64 7 11 C6.01 11 5.02 11 4 11 C2.35 7.7 0.7 4.4 -1 1 C-0.67 0.67 -0.34 0.34 0 0 Z " fill="#29788C" transform="translate(474,175)"/>
<path d="M0 0 C2 3 2 3 2.3125 5.375 C2.8026127 8.26309633 2.8026127 8.26309633 5.625 10.25 C8 13 8 13 8.10546875 15.31640625 C7.8398933 17.5791091 7.48945949 19.7756247 7 22 C6.67 22 6.34 22 6 22 C5.97421875 21.39671875 5.9484375 20.7934375 5.921875 20.171875 C5.61871785 14.95227813 5.61871785 14.95227813 3 10.5625 C2.34 10.046875 1.68 9.53125 1 9 C-0.4783226 6.04335481 -0.06032783 3.25770263 0 0 Z " fill="#387E7C" transform="translate(413,104)"/>
<path d="M0 0 C5.67276511 -0.29341888 8.99067246 -0.00559652 14 3 C14 3.66 14 4.32 14 5 C12.35 5 10.7 5 9 5 C8.34 3.68 7.68 2.36 7 1 C6.01 1 5.02 1 4 1 C3.67 1.99 3.34 2.98 3 4 C2.34 3.67 1.68 3.34 1 3 C1.33 2.34 1.66 1.68 2 1 C1.34 0.67 0.68 0.34 0 0 Z " fill="#237F87" transform="translate(339,59)"/>
<path d="M0 0 C3.57410797 2.68058098 6.31941902 5.42589203 9 9 C8.67 9.66 8.34 10.32 8 11 C3.49413822 8.80795913 1.86918556 6.62377481 0 2 C0 1.34 0 0.68 0 0 Z " fill="#247679" transform="translate(383,86)"/>
<path d="M0 0 C3.75376152 1.25125384 4.24073289 2.5652404 6 6 C6 6.66 6 7.32 6 8 C3.69 7.34 1.38 6.68 -1 6 C-0.67 4.02 -0.34 2.04 0 0 Z " fill="#227A8D" transform="translate(481,206)"/>
<path d="M0 0 C2 2 2 2 3 5 C4.62882397 6.43948118 4.62882397 6.43948118 6.5625 7.6875 C7.20316406 8.12449219 7.84382813 8.56148437 8.50390625 9.01171875 C8.99761719 9.33785156 9.49132812 9.66398438 10 10 C8.68 10.33 7.36 10.66 6 11 C4.80040625 9.74057614 3.61560557 8.46704714 2.4375 7.1875 C1.44556641 6.12595703 1.44556641 6.12595703 0.43359375 5.04296875 C-0.03949219 4.36878906 -0.51257813 3.69460937 -1 3 C-0.67 2.01 -0.34 1.02 0 0 Z " fill="#214E6C" transform="translate(406,185)"/>
<path d="M0 0 C1.98 0.99 1.98 0.99 4 2 C4 2.66 4 3.32 4 4 C4.66 4 5.32 4 6 4 C6 5.98 6 7.96 6 10 C5.01 10 4.02 10 3 10 C3 8.02 3 6.04 3 4 C2.34 4 1.68 4 1 4 C0.67 2.68 0.34 1.36 0 0 Z " fill="#24748B" transform="translate(489,220)"/>
<path d="M0 0 C2.9375 0.8125 2.9375 0.8125 6 2 C6.33 2.99 6.66 3.98 7 5 C7.66 5.66 8.32 6.32 9 7 C3.49411765 6.51058824 3.49411765 6.51058824 1.125 4.0625 C0 2 0 2 0 0 Z " fill="#1B406A" transform="translate(376,193)"/>
<path d="M0 0 C3.01343955 3.32851768 3.44667544 5.81882813 3.6875 10.25 C3.75324219 11.32765625 3.81898438 12.4053125 3.88671875 13.515625 C3.92410156 14.33546875 3.96148437 15.1553125 4 16 C0.48766061 10.73149092 -0.25153688 6.28842188 0 0 Z " fill="#338480" transform="translate(446,132)"/>
<path d="M0 0 C0.99 0 1.98 0 3 0 C2.875 1.75 2.875 1.75 2 4 C-3.22222222 8 -3.22222222 8 -6 8 C-6 7.34 -6 6.68 -6 6 C-5.01 5.67 -4.02 5.34 -3 5 C-2.505 4.154375 -2.01 3.30875 -1.5 2.4375 C-1.005 1.633125 -0.51 0.82875 0 0 Z " fill="#203F63" transform="translate(392,192)"/>
<path d="M0 0 C0.66 0.66 1.32 1.32 2 2 C1.1875 3.9375 1.1875 3.9375 0 6 C-0.99 6.33 -1.98 6.66 -3 7 C-4.5 5.625 -4.5 5.625 -6 4 C-6 3.34 -6 2.68 -6 2 C-4.7934375 1.7834375 -4.7934375 1.7834375 -3.5625 1.5625 C-1.07896294 1.25864751 -1.07896294 1.25864751 0 0 Z " fill="#17597F" transform="translate(366,128)"/>
<path d="M0 0 C2.31 0.33 4.62 0.66 7 1 C7.33 2.32 7.66 3.64 8 5 C3.77471908 5 2.95481492 4.74375671 0 2 C0 1.34 0 0.68 0 0 Z " fill="#22848D" transform="translate(384,95)"/>
<path d="M0 0 C1.98 0.66 3.96 1.32 6 2 C6.33 4.31 6.66 6.62 7 9 C4.03595495 6.19195732 1.55500981 3.81684226 0 0 Z " fill="#2C7A7F" transform="translate(454,155)"/>
<path d="M0 0 C0.66 0 1.32 0 2 0 C2.66 0.99 3.32 1.98 4 3 C4.99 3 5.98 3 7 3 C8.0625 4.8125 8.0625 4.8125 9 7 C8.67 7.99 8.34 8.98 8 10 C7.67 9.01 7.34 8.02 7 7 C6.01 7 5.02 7 4 7 C0 2.65714286 0 2.65714286 0 0 Z " fill="#1C5579" transform="translate(372,148)"/>
<path d="M0 0 C1.65 1.65 3.3 3.3 5 5 C4.01 5.33 3.02 5.66 2 6 C2 6.66 2 7.32 2 8 C1.34 8 0.68 8 0 8 C-0.66 6.02 -1.32 4.04 -2 2 C-1.34 1.34 -0.68 0.68 0 0 Z " fill="#1E7D87" transform="translate(410,119)"/>
<path d="M0 0 C3.89230769 4.95384615 3.89230769 4.95384615 5 8 C4.625 10.75 4.625 10.75 4 13 C3.67 13 3.34 13 3 13 C2.896875 12.071875 2.79375 11.14375 2.6875 10.1875 C2.30353458 7.00988252 2.30353458 7.00988252 0.375 5.375 C-0.07875 4.92125 -0.5325 4.4675 -1 4 C-0.6875 1.8125 -0.6875 1.8125 0 0 Z " fill="#1C446A" transform="translate(357,145)"/>
<path d="M0 0 C2.97 0.495 2.97 0.495 6 1 C5.67 2.65 5.34 4.3 5 6 C3.35 5.67 1.7 5.34 0 5 C0 3.35 0 1.7 0 0 Z " fill="#1E7689" transform="translate(384,113)"/>
<path d="M0 0 C0.66 0.33 1.32 0.66 2 1 C-1.07999946 4.67230705 -3.2482602 5.56802365 -8 6 C-8 5.34 -8 4.68 -8 4 C-6.71349294 3.30289269 -5.42059335 2.61757124 -4.125 1.9375 C-3.40570313 1.55464844 -2.68640625 1.17179687 -1.9453125 0.77734375 C-1.30335938 0.52082031 -0.66140625 0.26429687 0 0 Z " fill="#2D8470" transform="translate(423,96)"/>
<path d="M0 0 C0.99 0.33 1.98 0.66 3 1 C4.1875 3.5625 4.1875 3.5625 5 6 C4.01 6.66 3.02 7.32 2 8 C1.67 7.01 1.34 6.02 1 5 C0.34 4.67 -0.32 4.34 -1 4 C-0.67 2.68 -0.34 1.36 0 0 Z " fill="#207F7F" transform="translate(369,72)"/>
<path d="M0 0 C0.33 0 0.66 0 1 0 C1 2.64 1 5.28 1 8 C-0.32 7.67 -1.64 7.34 -3 7 C-3 6.01 -3 5.02 -3 4 C-2.34 4 -1.68 4 -1 4 C-0.67 2.68 -0.34 1.36 0 0 Z " fill="#1A7879" transform="translate(465,159)"/>
<path d="M0 0 C0.99 0.66 1.98 1.32 3 2 C2.34 3.32 1.68 4.64 1 6 C0.01 5.67 -0.98 5.34 -2 5 C-2 3.68 -2 2.36 -2 1 C-1.34 0.67 -0.68 0.34 0 0 Z " fill="#17517C" transform="translate(323,106)"/>
<path d="M0 0 C2.475 0.99 2.475 0.99 5 2 C5 2.99 5 3.98 5 5 C4.01 5.33 3.02 5.66 2 6 C2 5.01 2 4.02 2 3 C1.34 3 0.68 3 0 3 C0 2.01 0 1.02 0 0 Z " fill="#21848B" transform="translate(397,107)"/>
<path d="M0 0 C3.3 0 6.6 0 10 0 C10 0.66 10 1.32 10 2 C6.7 2.66 3.4 3.32 0 4 C0 2.68 0 1.36 0 0 Z " fill="#114061" transform="translate(423,203)"/>
<path d="M0 0 C0.66 0 1.32 0 2 0 C2.33 2.31 2.66 4.62 3 7 C3.66 7 4.32 7 5 7 C4.67 7.99 4.34 8.98 4 10 C4 9.34 4 8.68 4 8 C3.34 8 2.68 8 2 8 C1.67 6.35 1.34 4.7 1 3 C0.34 3 -0.32 3 -1 3 C-0.67 2.01 -0.34 1.02 0 0 Z " fill="#208489" transform="translate(485,185)"/>
<path d="M0 0 C0.33 0.66 0.66 1.32 1 2 C1.99 1.67 2.98 1.34 4 1 C4.66 2.65 5.32 4.3 6 6 C4.68 6 3.36 6 2 6 C0 3 0 3 0 0 Z " fill="#183A6C" transform="translate(345,156)"/>
<path d="M0 0 C0.66 1.32 1.32 2.64 2 4 C0 6 0 6 -3.125 6.125 C-4.548125 6.063125 -4.548125 6.063125 -6 6 C-6 5.01 -6 4.02 -6 3 C-4.02 3.495 -4.02 3.495 -2 4 C-1.34 2.68 -0.68 1.36 0 0 Z " fill="#2B6F7D" transform="translate(399,123)"/>
<path d="M0 0 C5.78461538 4.43076923 5.78461538 4.43076923 6.875 7.3125 C6.936875 8.1478125 6.936875 8.1478125 7 9 C6.01 9.495 6.01 9.495 5 10 C3.33333333 6.66666667 1.66666667 3.33333333 0 0 Z " fill="#2F777A" transform="translate(411,119)"/>
<path d="M0 0 C1.98 1.65 3.96 3.3 6 5 C5.67 5.99 5.34 6.98 5 8 C1.39345961 5.59563974 1.14547068 4.05320393 0 0 Z " fill="#18615E" transform="translate(372,73)"/>
<path d="M0 0 C6.15234375 0.5859375 6.15234375 0.5859375 8 1 C8.33 1.66 8.66 2.32 9 3 C6.03 3 3.06 3 0 3 C0 2.01 0 1.02 0 0 Z " fill="#1C7E80" transform="translate(361,68)"/>
<path d="M0 0 C1.32 0.33 2.64 0.66 4 1 C4 1.99 4 2.98 4 4 C4.66 4 5.32 4 6 4 C5.67 4.66 5.34 5.32 5 6 C2.525 5.01 2.525 5.01 0 4 C0 2.68 0 1.36 0 0 Z " fill="#217A7C" transform="translate(480,184)"/>
<path d="M0 0 C0.99 0.33 1.98 0.66 3 1 C2.34 3.31 1.68 5.62 1 8 C0.34 7.34 -0.32 6.68 -1 6 C-0.625 2.875 -0.625 2.875 0 0 Z " fill="#1B5881" transform="translate(405,179)"/>
<path d="M0 0 C2.97 0.495 2.97 0.495 6 1 C6 1.99 6 2.98 6 4 C3.03 3.505 3.03 3.505 0 3 C0 2.01 0 1.02 0 0 Z " fill="#184E7D" transform="translate(346,139)"/>
<path d="M0 0 C0.99 0.33 1.98 0.66 3 1 C2.34 4.63 1.68 8.26 1 12 C0.67 12 0.34 12 0 12 C0 8.04 0 4.08 0 0 Z " fill="#2A4663" transform="translate(343,130)"/>
<path d="M0 0 C2.6855594 2.6855594 3.06049974 5.37621328 4 9 C3.01 9 2.02 9 1 9 C-1.125 2.25 -1.125 2.25 0 0 Z " fill="#1E6A74" transform="translate(390,114)"/>
<path d="M0 0 C0.66 0.99 1.32 1.98 2 3 C1.4225 2.814375 0.845 2.62875 0.25 2.4375 C-2.20692525 1.95976454 -3.64397534 2.24270636 -6 3 C-6.33 2.34 -6.66 1.68 -7 1 C-4.46578263 -0.26710868 -2.80561762 -0.28056176 0 0 Z " fill="#388880" transform="translate(429,97)"/>
<path d="M0 0 C1.32 0.33 2.64 0.66 4 1 C3.67 2.65 3.34 4.3 3 6 C2.01 5.34 1.02 4.68 0 4 C0 2.68 0 1.36 0 0 Z " fill="#186086" transform="translate(324,86)"/>
</svg>
